PathFileType	4	(X/Y/Z)	/Users/mathieubourgeois/Desktop/Analyse/Traitement/Sujet_01/Data/Transformed_Sujet_01_velo_100.trc
DataRate	CameraRate	NumFrames	NumMarkers	Units	OrigDataRate	OrigDataStartFrame	OrigNumFrames
120.000000	120.000000	4	35	mm	120.000000	1491	1988
Frame#	Time	RFHD			LFHD			RBHD			LBHD			RSHO			LSHO			CLAV			STRN			T10			RBWT			LBWT			RFWT			LFWT			RRAD			RWRA			RWRB			RCAR			RHUM			LHUM			LRAD			LWRA			LWRB			LCAR			RKNI			RKNE			LKNI			LKNE			RANE			RANI			RTOE			RHEE			LTOE			LANI			LANE			LHEE			
		X1	Y1	Z1	X2	Y2	Z2	X3	Y3	Z3	X4	Y4	Z4	X5	Y5	Z5	X6	Y6	Z6	X7	Y7	Z7	X8	Y8	Z8	X9	Y9	Z9	X10	Y10	Z10	X11	Y11	Z11	X12	Y12	Z12	X13	Y13	Z13	X14	Y14	Z14	X15	Y15	Z15	X16	Y16	Z16	X17	Y17	Z17	X18	Y18	Z18	X19	Y19	Z19	X20	Y20	Z20	X21	Y21	Z21	X22	Y22	Z22	X23	Y23	Z23	X24	Y24	Z24	X25	Y25	Z25	X26	Y26	Z26	X27	Y27	Z27	X28	Y28	Z28	X29	Y29	Z29	X30	Y30	Z30	X31	Y31	Z31	X32	Y32	Z32	X33	Y33	Z33	X34	Y34	Z34	X35	Y35	Z35	

1492	12.425	176.9433135986328	1420.175903320312	314.1061401367186	183.211181640625	1410.360961914062	189.9061431884765	80.21147918701168	1537.49755859375	306.0021057128905	83.5289611816406	1531.151245117188	174.1390991210937	-1.892926335334819	1382.182495117188	335.3870544433593	-13.48652648925783	1375.80615234375	121.8658065795898	6.560343742370576	1323.661743164062	239.2998504638671	-42.5910568237305	1218.364501953125	243.9386596679687	-219.0303192138672	1386.172729492188	264.2814025878906	-419.1921997070313	1113.886474609375	347.9791870117186	-431.5641784667969	1110.993408203125	228.093292236328	-243.7332458496094	1069.303344726562	384.8453979492186	-259.9519348144531	1090.917358398438	159.9312286376952	138.5154266357421	1169.490600585938	490.3858947753906	316.3523254394531	1044.26953125	410.6969909667969	339.4020996093749	1055.09228515625	470.8034973144531	418.0222473144531	1029.315673828125	401.840087890625	94.31870269775385	1128.328979492188	458.4851989746093	87.67246246337889	1118.101928710938	67.23586273193354	138.2839050292969	1147.584228515625	35.94467544555658	316.0383605957031	1038.988037109375	143.7559967041015	338.9818115234375	1046.900634765625	78.14996337890622	401.2570495605469	1049.347900390625	150.7454223632812	-146.5499267578125	628.8194580078125	335.4414978027343	-155.8090820312501	663.7748413085938	449.7162475585937	33.60163879394529	953.7866821289062	191.5697479248046	15.79579162597656	944.7181396484375	63.62947845458979	-195.9764556884766	319.6366882324219	431.83349609375	-167.4903259277344	320.3183288574219	357.6122131347656	-39.41078948974614	193.684555053711	396.5989074707031	-260.6365051269532	302.0249938964844	391.8243408203124	28.87395286560057	550.4302368164062	140.0601501464843	-129.5003051757813	647.0341796875	171.6980590820312	-145.2474670410156	631.5421752929688	94.33683776855463	-221.5555267333985	592.2547607421875	139.3046112060546	
1493	12.43333333333333	178.4943695068359	1420.566650390625	313.6614379882811	184.4839172363281	1410.666625976562	189.4772338867187	81.52756500244136	1537.72802734375	305.628204345703	84.60287475585936	1531.256225585938	173.7891693115234	-0.5122204422951155	1382.269409179688	335.1773071289062	-12.06661891937257	1375.937622070312	121.8818893432616	11.61484527587888	1324.217529296875	238.5355072021484	-40.94867706298831	1218.809692382812	244.4198455810546	-217.5109558105469	1387.380981445312	263.8811645507812	-419.8975219726563	1116.695922851562	347.1744689941405	-432.0242919921875	1114.1259765625	227.3771972656249	-244.6154022216797	1071.130859375	384.7470703124999	-260.6848754882812	1092.675537109375	160.0516204833984	139.3602294921874	1169.895141601562	490.6522521972656	316.8639526367187	1044.421997070312	410.9272155761719	339.9903869628906	1055.1064453125	470.987548828125	418.4160766601562	1028.78662109375	402.0487670898438	95.01628875732416	1128.671752929688	458.8706359863281	88.58244323730467	1118.0068359375	67.44583129882807	139.2146453857422	1147.511108398438	35.94116592407221	316.5098571777344	1038.887329101562	143.9566802978515	339.5798950195312	1046.843383789062	78.3699035644531	401.6836242675781	1049.14306640625	151.1213684082031	-149.408432006836	631.7974243164062	333.9610900878906	-156.1910247802735	666.9388427734375	448.8966979980468	32.49835586547849	955.4276733398438	192.9132080078124	16.20471191406249	945.888671875	65.4388809204101	-210.6235656738282	324.8866271972656	430.0675354003906	-182.1669006347657	324.6717529296875	355.5955810546875	-57.01971817016607	195.8070373535157	396.2961120605469	-276.0055847167969	308.5493774414062	390.2209472656249	46.38195037841795	553.0767822265625	138.6478271484375	-121.7561111450195	642.374267578125	172.2523193359374	-131.4910278320312	625.4838256835938	93.89779663085932	-206.384506225586	582.9970703125	138.1298217773437	
1494	12.44166666666667	179.8951721191406	1420.661743164062	313.3341064453124	185.5989990234375	1410.658081054688	189.1941375732421	82.81989288330074	1537.7841796875	305.4369506835936	85.6269073486328	1531.243896484375	173.6061553955077	0.7005078792571611	1382.182861328125	335.0291748046874	-10.76149940490724	1376.149047851562	122.0047073364257	14.90833568572995	1324.391845703125	238.5855407714843	-39.48898696899417	1219.078979492188	244.9735565185546	-216.1752319335938	1388.621459960938	263.4772033691406	-420.8104858398438	1119.378784179688	346.3101806640624	-432.5906677246094	1117.101928710938	226.5867309570311	-245.6377868652344	1073.075439453125	384.716094970703	-261.353759765625	1094.082275390625	160.012969970703	140.042007446289	1170.216796875	491.0796203613281	317.2192382812499	1044.551513671875	411.2992553710938	340.3515319824218	1055.08544921875	471.3436279296875	418.6728820800781	1028.395874023438	402.3878479003906	95.5214004516601	1128.959106445312	459.5700988769531	89.38977050781249	1117.938110351562	67.54302978515619	140.0717468261719	1147.51318359375	35.94506835937494	316.8419189453125	1038.865478515625	144.2812042236328	339.9842834472656	1046.940063476562	78.8033752441406	402.0210571289062	1049.041015625	151.5863800048828	-150.551498413086	635.9850463867188	333.2298889160156	-155.1431732177735	671.164306640625	448.3316040039062	31.34131240844724	954.5401000976562	194.3670959472656	16.10273551940917	944.591064453125	67.26686859130854	-224.6557159423829	331.91162109375	428.4943542480469	-196.5601654052735	331.0562438964844	353.6807556152344	-74.17161560058598	199.9014434814453	395.9808959960938	-290.9193115234376	316.9281921386719	388.8149414062499	61.1865768432617	550.7745361328125	140.0559844970703	-102.9561309814453	632.6997680664062	170.4505462646484	-118.8119659423828	617.0997314453125	93.29960632324213	-191.7452697753907	572.10693359375	137.2082366943359	
1495	12.45	180.9838104248047	1420.449340820312	313.136260986328	186.4926300048828	1410.384155273438	188.9822692871093	84.13742828369136	1537.626586914062	305.4070739746093	86.65627288818358	1531.130615234375	173.5656585693359	1.702978610992391	1381.968383789062	334.9839172363281	-9.665352821350112	1376.420532226562	122.2451629638671	17.55326461791989	1324.48779296875	239.0715332031249	-38.36659622192386	1219.265380859375	245.5898437499999	-215.0531005859375	1389.831298828125	263.0900573730468	-421.8724670410157	1121.862426757812	345.4034729003905	-433.3157653808594	1119.757568359375	225.7681884765624	-246.8236389160157	1075.05810546875	384.7675170898436	-261.8431396484375	1095.044677734375	159.8225708007812	140.4797210693359	1170.535766601562	491.7231140136718	317.2993774414062	1044.686279296875	411.6853637695312	340.5131835937499	1055.04541015625	471.7348937988281	418.7413024902343	1028.2001953125	402.7638244628906	95.80233001708979	1129.208618164062	460.5616455078124	90.01268005371092	1117.953125	67.52936553955072	140.7637634277344	1147.616821289062	36.00217819213862	317.0028381347656	1038.878173828125	144.683837890625	340.2308044433594	1047.057373046875	79.18224334716794	402.201416015625	1049.011108398438	152.0355072021484	-150.8398590087891	641.2811279296875	332.7510986328124	-152.8392944335938	676.2339477539062	448.0131225585937	30.08079147338865	951.1975708007812	195.7236633300781	15.59319782257079	940.7887573242188	68.90652465820307	-238.0419616699219	340.6595153808594	427.1105651855468	-210.1875457763672	339.1118774414062	352.0054626464844	-90.60808563232426	206.0008239746094	395.7421875	-305.1108093261719	327.0264892578125	387.5355224609374	76.1603317260742	545.9620971679688	140.6280364990234	-90.96773529052736	622.9989013671875	169.668716430664	-106.5359420776367	607.5507202148438	92.65396118164057	-177.4152069091797	559.6719360351562	135.8439941406249	
